<svg width="50" height="50" viewBox="0 0 50 50" fill="none" xmlns="http://www.w3.org/2000/svg">
<path d="M8.33333 41.6667C7.1875 41.6667 6.20694 41.2591 5.39166 40.4438C4.57639 39.6285 4.16805 38.6473 4.16666 37.5V12.5C4.16666 11.3542 4.575 10.3737 5.39166 9.55837C6.20833 8.7431 7.18889 8.33476 8.33333 8.33337H41.6667C42.8125 8.33337 43.7937 8.74171 44.6104 9.55837C45.4271 10.375 45.8347 11.3556 45.8333 12.5V37.5C45.8333 38.6459 45.4257 39.6271 44.6104 40.4438C43.7951 41.2605 42.8139 41.6681 41.6667 41.6667H8.33333ZM25 26.7188C25.1736 26.7188 25.3562 26.6924 25.5479 26.6396C25.7396 26.5868 25.9215 26.5091 26.0937 26.4063L40.8333 17.1875C41.1111 17.0139 41.3194 16.7973 41.4583 16.5375C41.5972 16.2778 41.6667 15.991 41.6667 15.6771C41.6667 14.9827 41.3715 14.4618 40.7812 14.1146C40.191 13.7674 39.5833 13.7848 38.9583 14.1667L25 22.9167L11.0417 14.1667C10.4167 13.7848 9.80903 13.7764 9.21875 14.1417C8.62847 14.507 8.33333 15.0188 8.33333 15.6771C8.33333 16.0243 8.40277 16.3285 8.54166 16.5896C8.68055 16.8507 8.88889 17.05 9.16666 17.1875L23.9062 26.4063C24.0799 26.5105 24.2625 26.5889 24.4542 26.6417C24.6458 26.6945 24.8278 26.7202 25 26.7188Z" fill="white"/>
</svg>
